<svg xmlns="http://www.w3.org/2000/svg" viewBox="0 0 800 360" role="img" aria-labelledby="title-soho-view desc-soho-view">
  <title id="title-soho-view">Soho neon nightlife</title>
  <desc id="desc-soho-view">Bright theatre signs, bars, and stacked neon panels in Soho at night.</desc>
  <defs>
    <linearGradient id="bg-soho" x1="0" y1="0" x2="1" y2="1">
      <stop offset="0%" stop-color="#020617" />
      <stop offset="100%" stop-color="#facc15" />
    </linearGradient>
  </defs>
  <rect width="800" height="360" rx="34" fill="url(#bg-soho)" />
  <rect x="60" y="120" width="160" height="190" fill="#111827" />
  <rect x="260" y="90" width="160" height="220" fill="#0b1120" />
  <rect x="460" y="140" width="140" height="170" fill="#111827" />
  <rect x="640" y="110" width="100" height="200" fill="#020617" />
  <rect x="80" y="140" width="120" height="40" fill="#f97316" />
  <rect x="80" y="200" width="120" height="30" fill="#22c55e" />
  <rect x="280" y="110" width="120" height="50" fill="#facc15" />
  <rect x="280" y="190" width="120" height="40" fill="#f97316" />
  <rect x="480" y="160" width="100" height="40" fill="#ec4899" />
  <rect x="480" y="220" width="60" height="30" fill="#22d3ee" />
  <circle cx="690" cy="150" r="26" fill="#fbbf24" />
  <circle cx="690" cy="215" r="18" fill="#f97316" />
  <path d="M60 290 L740 290" stroke="#e5e7eb" stroke-width="6" />
  <circle cx="140" cy="260" r="4" fill="#fee2e2" />
  <circle cx="320" cy="260" r="4" fill="#fee2e2" />
  <circle cx="520" cy="260" r="4" fill="#fee2e2" />
  <circle cx="700" cy="260" r="4" fill="#fee2e2" />
  <text x="50" y="50" fill="#fefce8" font-family="Inter, system-ui, sans-serif" font-size="28" font-weight="600">Soho lights</text>
  <text x="50" y="80" fill="#fef9c3" font-family="Inter, system-ui, sans-serif" font-size="16">Bars · Theatres · Late-night food</text>
</svg>
