<svg xmlns="http://www.w3.org/2000/svg" viewBox="0 0 800 360" role="img" aria-labelledby="title-westminster-tower-view desc-westminster-tower-view">
  <title id="title-westminster-tower-view">South Bank to Tower Bridge</title>
  <desc id="desc-westminster-tower-view">The South Bank riverside path leading toward Tower Bridge at dusk.</desc>
  <defs>
    <linearGradient id="bg-westminster-tower" x1="0" y1="0" x2="1" y2="1">
      <stop offset="0%" stop-color="#020617" />
      <stop offset="100%" stop-color="#134e4a" />
    </linearGradient>
  </defs>
  <rect width="800" height="360" rx="34" fill="url(#bg-westminster-tower)" />
  <path d="M0 210 C200 180 400 220 800 180 L800 360 L0 360 Z" fill="#022c3a" />
  <rect x="0" y="240" width="800" height="40" fill="#051524" />
  <rect x="320" y="170" width="40" height="140" fill="#fef08a" />
  <rect x="420" y="170" width="40" height="140" fill="#fef08a" />
  <path d="M320 170 L320 150 L460 150 L460 170 Z" fill="#fbbf24" />
  <rect x="520" y="140" width="40" height="170" fill="#c7d2fe" />
  <rect x="640" y="140" width="40" height="170" fill="#c7d2fe" />
  <rect x="520" y="140" width="160" height="20" fill="#93c5fd" />
  <path d="M520 220 C540 200 640 200 660 220" fill="none" stroke="#93c5fd" stroke-width="6" />
  <circle cx="360" cy="200" r="18" fill="#0f172a" stroke="#fde68a" stroke-width="4" />
  <path d="M450 220 L450 260" stroke="#e0e7ff" stroke-width="10" />
  <text x="50" y="50" fill="#ecfeff" font-family="Inter, system-ui, sans-serif" font-size="28" font-weight="600">Tower Bridge sunset</text>
  <text x="50" y="80" fill="#bbf7d0" font-family="Inter, system-ui, sans-serif" font-size="16">South Bank walk · Thames link</text>
</svg>
