<?xml version="1.0" encoding="UTF-8"?>
<svg id="Logo" xmlns="http://www.w3.org/2000/svg" version="1.1" viewBox="0 0 500 344">
  <defs>
    <style>
      .cls-1 {
        fill: #1e1e1e;
      }

      .cls-1, .cls-2, .cls-3 {
        stroke-width: 0px;
      }

      .cls-2 {
        fill: #d61726;
      }

      .cls-3 {
        fill: #231f20;
      }
    </style>
  </defs>
  <path class="cls-1" d="M140.4,58.5h-2.3c-.8-1.4-1.9-3.3-3.5-5.8-1.5-2.5-3.9-4.8-7.1-7.1-3.2-2.3-7.5-4.3-12.9-6.1-5.4-1.8-12.2-2.7-20.5-2.7-19.3,0-34,6-44,18-10,12-15,28.9-15,50.9s0,4.8.2,8.3c.1,3.5.7,7.5,1.5,11.9.8,4.4,2.2,9,4.1,13.8,1.9,4.8,4.6,9.5,8.2,14.2,2,2.8,4.3,5.4,7,7.8,2.7,2.5,5.7,4.7,9.1,6.7,3.4,2,7.2,3.6,11.4,4.7,4.2,1.1,8.9,1.7,14.2,1.7s13.3-.8,18.8-2.4c5.4-1.6,10.3-3.7,14.5-6.2,4.2-2.5,7.9-5.3,11.2-8.4,3.2-3.1,6.1-6.1,8.7-9.2l2.5,1.6-2.5,22.8c-17.5,9.7-36.9,14.5-58.2,14.5s-21.8-1.7-31.8-5.2c-10-3.5-18.7-8.5-26.1-15.2-7.4-6.7-13.3-15-17.7-25-4.4-10-6.6-21.4-6.6-34.3s1.8-22.3,5.4-32.5c3.6-10.1,9.1-19,16.5-26.5,7.4-7.5,16.7-13.5,28-17.8,11.3-4.4,24.6-6.6,39.9-6.6s18.6.9,27.2,2.6c8.6,1.8,17.5,4.7,26.7,8.9l-6.9,22.6Z"/>
  <path class="cls-1" d="M176.3,79.5c0-7.4,0-15.3-.2-23.7-.2-8.4-.8-18.3-2.1-29.5,2.1.3,5,.6,8.5.9,3.5.3,6.1.5,7.8.5,2.6,0,5.3-.1,8.1-.5,2.8-.3,5.5-.6,8.3-.9-.6,4.3-1.1,9.8-1.5,16.5-.4,6.7-.7,13.8-.8,21.3-.2,7.5-.2,15-.2,22.4v19.9c0,17.2.1,32.1.5,44.8.3,12.7.9,23.7,1.8,33-2.6-.2-5.3-.4-8.1-.8-2.8-.4-5.4-.6-8.1-.6s-5.4.2-8.3.6c-2.9.4-5.7.7-8.3.8,1.2-13.8,2-29.8,2.2-47.9.2-18.1.3-37.1.3-56.9"/>
  <path class="cls-1" d="M297.8,152.7c0,8.7.2,15.4.6,19.9.4,4.5.7,8.4,1,11.6-3.4-.3-6.7-.6-9.9-.9-3.2-.3-5.5-.5-6.9-.5-2,0-4.1.1-6.2.3-2.1.2-5.3.6-9.4,1,.5-8.7,1-17.5,1.5-26.4.5-8.8.8-17.6.8-26.4l-.2-64.2c0-4.3,0-8.5-.1-12.7,0-4.1-.2-8.4-.3-12.9h-11.5c-.5,0-2.1,0-4.8.1-2.8,0-5.9.2-9.6.2s-7.4.2-11.3.5c-3.9.2-7.3.5-10.2.8.8-3.1,1.2-5.9,1.2-8.5s-.4-5.4-1.2-8.5c4.6.3,9.6.5,14.9.7,5.3.2,10.7.3,16.1.5,5.4.2,10.8.2,16,.2h14.5c9.7,0,19.6,0,29.7-.2,10.1-.1,20.7-.5,31.8-1.1-.8,4.3-1.2,7.2-1.2,8.7s.1,2.5.3,3.7c.2,1.2.5,2.8.8,4.6-6.9-.8-14.3-1.2-22.1-1.4-7.8-.2-15.7-.2-23.7-.2-.2,4.1-.3,8.4-.3,12.7,0,4.3-.1,8.7-.1,13.1v85.2Z"/>
  <path class="cls-1" d="M440.6,131.1c0,4.9,0,9.4.1,13.5,0,4.1.2,8.2.3,12.3.2,4.1.3,8.4.5,12.8.1,4.4.4,9.2.7,14.6-2.6-.3-5.3-.6-8-.9-2.7-.3-5.4-.5-8-.5s-5,.2-7.9.5c-2.9.3-5.5.6-7.7.9.1-4.5.3-9.6.5-15.3.2-5.8.3-11.5.5-17.3.1-5.8.3-11.3.3-16.6,0-5.3.1-9.7.1-13.2l-13.6-23.5c-2.9-5.1-6.3-10.7-10-17-3.8-6.3-7.6-12.7-11.5-19.1-3.9-6.4-7.8-12.8-11.6-19-3.8-6.2-7.2-11.9-10.1-16.9,4.3.5,7.9.8,10.7,1,2.8.2,5.6.3,8.2.3s5.8,0,9-.2c3.2-.2,6.5-.5,9.9-1.2,2.9,6.3,5.8,12.3,8.5,18,2.8,5.7,5.7,11.5,8.8,17.5,3.1,6,6.5,12.4,10.2,19.2,3.7,6.8,8,14.5,13,23.1,4.9-8.4,9-15.5,12.3-21.3,3.2-5.8,6.2-11.3,8.9-16.6,2.7-5.3,5.5-11,8.3-17.2,2.8-6.1,6.3-13.7,10.5-22.8,1.8.3,3.9.6,6.1.9,2.2.3,4.6.5,7.3.5s4.2-.1,5.6-.3c1.5-.2,2.8-.6,4-1-.9,1.5-2.5,4.1-4.7,7.8-2.2,3.7-4.6,7.6-7.1,11.6-2.5,4.1-4.9,7.9-7.1,11.5-2.2,3.6-3.8,6.1-4.7,7.5-5.2,8.3-10.1,16.7-14.7,25.2-4.6,8.5-9.4,16.9-14.3,25.2-.8,1.4-1.5,2.7-2.1,3.9-.6,1.2-.9,2.4-.9,3.5v8.5Z"/>
  <g>
    <path class="cls-1" d="M24.3,318.7c0-2.2,0-3.6-.2-4.5.3,0,.6.1.9.1.3,0,.6,0,.8,0s.8,0,1.3-.2c0,1-.2,2.2-.3,3.5,0,1.4-.2,2.8-.2,4.4,0,1.6-.1,3.2-.2,4.8,0,1.6,0,3.2-.1,4.8,0,1.9-.3,3.6-.9,5.1-.5,1.5-1.3,2.7-2.3,3.8-1,1-2.3,1.8-3.7,2.4-1.5.5-3.2.8-5.1.8-4.2,0-7.3-1-9.2-2.9-1.9-1.9-2.9-4.9-2.9-9.1s0-2.5.1-3.5c0-1,.1-2.1.1-3.1,0-2.4,0-4.4,0-6.3,0-1.8-.1-3.4-.2-4.6.3,0,.7.1,1.1.1.4,0,.8,0,1.1,0s.6,0,.9,0c.3,0,.6,0,.9-.1,0,.6-.1,1.4-.2,2.4,0,1-.1,2.1-.2,3.4,0,1.3-.1,2.6-.1,4.1,0,1.5,0,3,0,4.5s0,1.9,0,3c0,1,.1,2,.3,3,.2,1,.4,1.9.8,2.8.4.9.9,1.7,1.6,2.3.7.7,1.6,1.2,2.7,1.6,1.1.4,2.4.6,4,.6s2.8-.2,3.9-.7c1.1-.4,1.9-1,2.6-1.8.7-.7,1.2-1.6,1.6-2.5.4-1,.7-2,.8-3,.2-1,.3-2.1.3-3.1,0-1,0-2,0-2.9,0-4,0-7.1,0-9.2"/>
    <path class="cls-1" d="M48.5,332.3c-3.6-3.9-7.3-7.8-10.9-11.7,0,.8,0,1.8,0,3.2,0,1.3,0,3.1,0,5.4s0,1.3,0,2.2c0,.9,0,1.8,0,2.7,0,1,0,1.9,0,2.9,0,1,0,1.9,0,2.7,0,.8,0,1.6,0,2.2,0,.6,0,1.1,0,1.3-.5,0-.9,0-1.5,0s-1.1,0-1.6,0c0-.3.1-.8.2-1.6,0-.8.1-1.7.2-2.7,0-1.1.1-2.2.2-3.4,0-1.2.1-2.5.2-3.7,0-1.2,0-2.4.1-3.6,0-1.2,0-2.2,0-3.2,0-2.7,0-5,0-6.9,0-1.9,0-3.4-.1-4.3h.7c1.7,1.9,3.5,3.8,5.5,6,2,2.1,3.9,4.2,5.8,6.3,1.9,2.1,3.7,4,5.5,5.9,1.7,1.8,3.2,3.4,4.5,4.7v-5.7c0-2.9,0-5.8,0-8.6,0-2.8-.1-5.4-.3-7.9.6.1,1,.2,1.4.2s.8,0,1.3-.2c0,.6-.1,1.5-.2,2.8,0,1.2-.1,2.6-.2,4,0,1.4-.1,2.8-.2,4.1,0,1.3,0,2.4,0,3.2v2.5c0,1,0,1.9,0,3,0,1,0,2.1,0,3.1,0,1.1,0,2,0,2.9,0,.9,0,1.7,0,2.4v1.4h-.6c-3.2-3.7-6.7-7.6-10.3-11.5"/>
    <path class="cls-1" d="M67.8,319.7c0-1.8-.1-3.6-.2-5.5.4,0,.7.1,1.1.1.3,0,.7,0,1,0s.7,0,1,0c.3,0,.7,0,1.1-.1,0,1.9-.2,3.7-.2,5.5,0,1.8-.1,3.6-.1,5.5v7.2c0,1.9,0,3.7.1,5.5,0,1.8.1,3.6.2,5.3-.6,0-1.3,0-2.1,0s-1.4,0-2.1,0c0-1.7.2-3.5.2-5.3,0-1.8.1-3.6.1-5.5v-7.2c0-1.9,0-3.7-.1-5.5"/>
    <path class="cls-1" d="M85.5,337.2c-.9-2.3-1.9-4.8-3-7.4-1.1-2.6-2.1-5.2-3.2-7.9-1.1-2.7-2.2-5.3-3.2-7.7.4,0,.8.1,1.1.1.4,0,.7,0,1.1,0s.7,0,1.1,0c.4,0,.7,0,1.1-.1.6,1.9,1.3,3.8,2,5.8.7,2,1.5,4.1,2.4,6.2.8,2.1,1.7,4.2,2.5,6.4.9,2.2,1.8,4.3,2.7,6.4.5-1.1,1.1-2.4,1.6-3.9.6-1.4,1.2-2.9,1.8-4.4.6-1.5,1.2-3.1,1.8-4.7.6-1.6,1.2-3.1,1.7-4.6.5-1.5,1.1-2.8,1.5-4.1.5-1.3.8-2.4,1.1-3.3.6.1,1.1.2,1.6.2s.9,0,1.6-.2c-2.2,4.9-4.3,9.7-6.3,14.5-2,4.8-4,9.6-5.8,14.4-.5,0-.9,0-1.4,0s-1,0-1.4,0c-.6-1.7-1.4-3.7-2.4-6"/>
    <path class="cls-1" d="M107.5,319.6c0-1.8-.1-3.6-.2-5.4,1.3,0,2.5.1,3.8.1,1.2,0,2.5,0,3.8,0s2.5,0,3.7,0c1.2,0,2.5,0,3.7-.1,0,.4-.1.8-.1,1.3s0,.8.1,1.3c-.9,0-1.7-.1-2.5-.2-.7,0-1.5-.1-2.4-.2-.8,0-1.7-.1-2.7-.1-1,0-2.2,0-3.5,0,0,.9,0,1.8-.1,2.6,0,.8,0,1.7,0,2.8s0,2.2,0,3.2c0,1,0,1.8,0,2.4,1.2,0,2.3,0,3.3,0,1,0,1.9,0,2.7-.1.8,0,1.6,0,2.3-.1.7,0,1.3,0,2-.1,0,.4-.1.9-.1,1.3s0,.8.1,1.3c-.7,0-1.6-.2-2.5-.2-1,0-1.9,0-2.9-.1-1,0-1.9,0-2.7,0-.9,0-1.5,0-2,0,0,.3,0,.5,0,.8,0,.3,0,.7,0,1.1v4.2c0,1.6,0,2.9,0,4,0,1,0,1.8,0,2.4h2.9c1.1,0,2.1,0,3.1,0,1,0,2,0,2.9-.2.9,0,1.7-.2,2.4-.3,0,.2,0,.4-.1.7,0,.2,0,.5,0,.7,0,.4,0,.8.1,1.1-1.3,0-2.5,0-3.8,0h-7.6c-1.3,0-2.5,0-3.8,0,0-1.8.2-3.6.2-5.4,0-1.8.1-3.6.1-5.5v-7.2c0-1.9,0-3.7-.1-5.5"/>
    <path class="cls-1" d="M128.6,319.7c0-1.8-.1-3.6-.2-5.5.8,0,1.6.1,2.4.1.8,0,1.6,0,2.4,0s1.6,0,2.4-.1c.8,0,1.6-.1,2.4-.1,1.2,0,2.3.1,3.4.3,1.1.2,2,.6,2.8,1.1.8.5,1.4,1.2,1.9,2,.5.8.7,1.9.7,3.2s-.3,2.5-.9,3.5c-.6,1-1.3,1.8-2.2,2.4-.9.6-1.8,1.1-2.8,1.5-1,.4-1.9.6-2.7.7.3.4.8,1,1.4,1.8.6.8,1.2,1.6,2,2.5.7.9,1.5,1.9,2.3,2.9.8,1,1.5,1.9,2.3,2.9.7.9,1.4,1.7,2.1,2.5.6.8,1.2,1.3,1.6,1.7-.4,0-.8,0-1.3,0h-2.5c-.4,0-.8,0-1.2,0-.4-.6-1.1-1.5-1.9-2.7-.9-1.2-1.8-2.4-2.8-3.8-1-1.3-2.1-2.7-3.2-4-1.1-1.3-2.1-2.5-3-3.4h-1.6v3.1c0,1.9,0,3.7.1,5.5,0,1.8.1,3.6.2,5.3-.6,0-1.3,0-2.1,0s-1.4,0-2.1,0c0-1.7.2-3.5.2-5.3,0-1.8.1-3.6.1-5.5v-7.2c0-1.9,0-3.7-.1-5.5M133.4,327.7c.5,0,1,0,1.5,0,.9,0,1.8-.1,2.7-.3.9-.2,1.8-.5,2.6-1,.8-.5,1.4-1.1,2-2,.5-.8.8-1.9.8-3.1s-.2-2-.6-2.7c-.4-.7-.9-1.3-1.6-1.7-.6-.4-1.3-.7-2.1-.9-.8-.2-1.5-.2-2.2-.2s-1.8,0-2.4,0c-.6,0-1.2,0-1.6.1,0,1.5-.1,3.1-.2,4.6,0,1.5,0,3,0,4.5v2.4c.4,0,.8.1,1.3.2"/>
    <path class="cls-1" d="M154.4,339.2c.4.5.8,1,1.4,1.4.5.4,1.2.8,1.9,1,.7.3,1.5.4,2.4.4s1.8-.2,2.5-.5c.7-.3,1.4-.8,1.9-1.3.5-.5.9-1.2,1.2-1.9.3-.7.4-1.5.4-2.4,0-1.3-.3-2.3-1-3.1-.7-.8-1.5-1.4-2.5-1.9-1-.5-2-1-3.2-1.4-1.1-.4-2.2-.9-3.2-1.6-1-.6-1.8-1.4-2.5-2.4-.7-1-1-2.3-1-4s.2-2.3.6-3.2c.4-1,1-1.8,1.8-2.5.8-.7,1.8-1.3,2.9-1.6s2.4-.6,3.8-.6,2.5.2,3.5.5c1,.3,1.9.8,2.7,1.5-.3.5-.5,1-.6,1.5-.2.5-.3,1.2-.5,2h-.5c-.1-.4-.3-.8-.6-1.3-.2-.5-.6-.9-1-1.3-.4-.4-.9-.7-1.5-1-.6-.3-1.2-.4-2-.4s-1.5.1-2.2.4c-.7.3-1.2.6-1.7,1.1-.5.5-.9,1-1.1,1.7-.3.6-.4,1.3-.4,2.1,0,1.3.3,2.4,1,3.1.7.8,1.5,1.4,2.5,1.9,1,.5,2,1,3.2,1.4,1.1.4,2.2.9,3.2,1.5,1,.6,1.8,1.3,2.5,2.3.7.9,1,2.2,1,3.7s-.2,2.5-.7,3.7c-.5,1.1-1.1,2.2-2,3-.9.9-2,1.5-3.2,2-1.3.5-2.7.7-4.4.7s-3.1-.2-4.2-.7c-1.1-.5-2-1-2.7-1.6.3-.6.4-1.2.5-1.7,0-.5.2-1.2.3-2h.5c.2.5.5,1,.9,1.5"/>
    <path class="cls-1" d="M175.4,319.7c0-1.8-.1-3.6-.2-5.5.4,0,.7.1,1.1.1.3,0,.7,0,1,0s.7,0,1,0c.3,0,.7,0,1.1-.1,0,1.9-.2,3.7-.2,5.5,0,1.8-.1,3.6-.1,5.5v7.2c0,1.9,0,3.7.1,5.5,0,1.8.1,3.6.2,5.3-.6,0-1.3,0-2.1,0s-1.4,0-2.1,0c0-1.7.2-3.5.2-5.3,0-1.8.1-3.6.1-5.5v-7.2c0-1.9,0-3.7-.1-5.5"/>
    <path class="cls-1" d="M192.9,316.4c-.7,0-1.5,0-2.3,0-.8,0-1.6,0-2.4,0-.8,0-1.6,0-2.3.1-.7,0-1.4.1-2,.2.1-.5.2-1,.2-1.3s0-.7-.2-1.3c1.9,0,3.7.1,5.4.1,1.8,0,3.6,0,5.4,0s3.7,0,5.4,0c1.8,0,3.6,0,5.4-.1-.1.6-.2,1-.2,1.3s0,.8.2,1.3c-.6,0-1.3-.2-2-.2-.7,0-1.5-.1-2.3-.1-.8,0-1.6,0-2.4,0-.8,0-1.6,0-2.3,0,0,2.9-.1,5.8-.1,8.7v7.2c0,1.9,0,3.7.1,5.5,0,1.8.1,3.6.2,5.3-.6,0-1.3,0-2.1,0s-1.4,0-2.1,0c0-1.7.2-3.5.2-5.3,0-1.8.1-3.6.1-5.5v-7.2c0-2.9,0-5.8-.1-8.7"/>
    <path class="cls-1" d="M216.4,329.3c-.5-.9-1.1-1.9-1.8-3-.7-1.1-1.3-2.3-2.1-3.5-.7-1.2-1.4-2.4-2.1-3.5-.7-1.1-1.3-2.1-1.8-3-.5-.9-.9-1.5-1.2-2,.4,0,.8.1,1.2.1.4,0,.8,0,1.2,0s.8,0,1.2,0c.4,0,.8,0,1.2-.1,1.3,2.4,2.5,4.8,3.9,7.2,1.3,2.4,2.7,4.8,4.1,7.4.6-1,1.3-2.1,2-3.3.7-1.2,1.4-2.4,2.1-3.7.7-1.3,1.4-2.5,2-3.8.6-1.3,1.2-2.5,1.8-3.7.7.1,1.2.2,1.6.2s.9,0,1.6-.2c-1.3,2.1-2.5,3.9-3.6,5.6-1.1,1.7-2,3.2-2.8,4.5-.8,1.3-1.5,2.6-2.1,3.6-.6,1.1-1.1,2.1-1.6,2.9,0,1,0,2.1,0,3.3,0,1.2,0,2.3,0,3.5,0,1.1,0,2.2.1,3.2,0,1,0,1.7.1,2.3-.6,0-1.3,0-2.1,0s-1.4,0-2.1,0c.2-1.5.3-3.2.3-5.3,0-2.1,0-4.3,0-6.5-.3-.5-.7-1.2-1.2-2.1"/>
    <path class="cls-1" d="M246.8,322.4c.8-1.9,1.9-3.4,3.2-4.7,1.4-1.3,3.1-2.3,5-2.9,1.9-.7,4.1-1,6.4-1s4.5.3,6.4,1c1.9.7,3.6,1.7,5,2.9,1.4,1.3,2.5,2.9,3.2,4.7.8,1.9,1.2,4,1.2,6.4s-.4,4.5-1.2,6.4c-.8,1.9-1.9,3.4-3.2,4.7-1.4,1.3-3.1,2.3-5,2.9-1.9.6-4.1.9-6.4.9s-4.4-.3-6.4-.9-3.6-1.6-5-2.9c-1.4-1.3-2.5-2.9-3.2-4.7-.8-1.9-1.2-4-1.2-6.4s.4-4.5,1.2-6.4M272.1,322.7c-.6-1.7-1.4-3.1-2.5-4.2-1.1-1.1-2.3-1.9-3.7-2.5-1.4-.5-3-.8-4.6-.8s-3.1.3-4.6.8c-1.4.5-2.7,1.4-3.7,2.5-1.1,1.1-1.9,2.5-2.5,4.2s-.9,3.7-.9,6,.3,4.3.9,6,1.4,3.1,2.5,4.2c1.1,1.1,2.3,1.9,3.7,2.5,1.4.5,2.9.8,4.6.8s3.2-.3,4.6-.8c1.4-.5,2.7-1.4,3.7-2.5,1.1-1.1,1.9-2.5,2.5-4.2.6-1.7.9-3.7.9-6s-.3-4.3-.9-6"/>
    <path class="cls-1" d="M282.9,319.7c0-1.8-.1-3.6-.2-5.5,1.3,0,2.5.1,3.8.1,1.3,0,2.5,0,3.8,0s2.5,0,3.8,0c1.3,0,2.7,0,4.2-.1,0,.4-.1.8-.1,1.3s0,.8.1,1.3c-.8,0-1.7-.2-2.7-.2-1.1,0-2.2-.1-3.3-.2-1.1,0-2.2,0-3.2-.1-1,0-1.9,0-2.5,0,0,1,0,1.9,0,2.8,0,.9,0,1.8,0,2.7s0,1.9,0,2.7c0,.8,0,1.7,0,2.6,1.9,0,3.7,0,5.5,0,1.8,0,3.6-.2,5.4-.3-.1.4-.2.8-.2,1.3s0,.8.2,1.3c-.7,0-1.5-.1-2.4-.2-.9,0-1.8,0-2.8-.1-1,0-1.9,0-2.9,0h-2.8v3.6c0,1.9,0,3.7.1,5.5,0,1.8.1,3.6.2,5.3-.6,0-1.3,0-2.1,0s-1.4,0-2.1,0c0-1.7.2-3.5.2-5.3,0-1.8.1-3.6.1-5.5v-7.2c0-1.9,0-3.7-.1-5.5"/>
    <path class="cls-1" d="M315.7,319.7c0-1.8-.1-3.6-.2-5.5.4,0,.7.1,1.1.1.3,0,.7,0,1,0s.7,0,1,0c.3,0,.7,0,1.1-.1,0,1.9-.2,3.7-.2,5.5,0,1.8-.1,3.6-.1,5.5,0,3.5,0,6.6,0,9.2,0,2.6,0,4.9,0,7,2,0,3.9,0,5.7,0,1.8,0,3.8-.2,5.9-.5-.1.5-.2.9-.2,1.3s0,.7.2,1.1c-1.3,0-2.6,0-3.9,0h-7.8c-1.3,0-2.5,0-3.9,0,0-1.7.2-3.5.2-5.3,0-1.8.1-3.6.1-5.5v-7.2c0-1.9,0-3.7-.1-5.5"/>
    <path class="cls-1" d="M335.6,322.4c.8-1.9,1.9-3.4,3.2-4.7,1.4-1.3,3.1-2.3,5-2.9,1.9-.7,4.1-1,6.4-1s4.5.3,6.4,1c1.9.7,3.6,1.7,5,2.9,1.4,1.3,2.5,2.9,3.2,4.7.8,1.9,1.2,4,1.2,6.4s-.4,4.5-1.2,6.4c-.8,1.9-1.9,3.4-3.2,4.7-1.4,1.3-3.1,2.3-5,2.9-1.9.6-4.1.9-6.4.9s-4.4-.3-6.4-.9c-1.9-.6-3.6-1.6-5-2.9-1.4-1.3-2.5-2.9-3.2-4.7-.8-1.9-1.2-4-1.2-6.4s.4-4.5,1.2-6.4M361,322.7c-.6-1.7-1.4-3.1-2.5-4.2-1.1-1.1-2.3-1.9-3.7-2.5-1.4-.5-3-.8-4.6-.8s-3.2.3-4.6.8c-1.4.5-2.7,1.4-3.7,2.5-1.1,1.1-1.9,2.5-2.5,4.2s-.9,3.7-.9,6,.3,4.3.9,6,1.4,3.1,2.5,4.2c1.1,1.1,2.3,1.9,3.7,2.5,1.4.5,2.9.8,4.6.8s3.2-.3,4.6-.8c1.4-.5,2.7-1.4,3.7-2.5,1.1-1.1,1.9-2.5,2.5-4.2.6-1.7.9-3.7.9-6s-.3-4.3-.9-6"/>
    <path class="cls-1" d="M385.3,332.3c-3.6-3.9-7.3-7.8-10.9-11.7,0,.8,0,1.8,0,3.2,0,1.3,0,3.1,0,5.4s0,1.3,0,2.2c0,.9,0,1.8,0,2.7,0,1,0,1.9,0,2.9,0,1,0,1.9,0,2.7,0,.8,0,1.6,0,2.2,0,.6,0,1.1,0,1.3-.5,0-.9,0-1.5,0s-1.1,0-1.6,0c0-.3.1-.8.2-1.6,0-.8.1-1.7.2-2.7,0-1.1.1-2.2.2-3.4,0-1.2.1-2.5.2-3.7,0-1.2,0-2.4.1-3.6,0-1.2,0-2.2,0-3.2,0-2.7,0-5,0-6.9,0-1.9,0-3.4-.1-4.3h.7c1.7,1.9,3.5,3.8,5.5,6,1.9,2.1,3.9,4.2,5.8,6.3,1.9,2.1,3.7,4,5.5,5.9,1.7,1.8,3.2,3.4,4.5,4.7v-5.7c0-2.9,0-5.8,0-8.6,0-2.8-.1-5.4-.3-7.9.6.1,1,.2,1.4.2s.8,0,1.3-.2c0,.6-.1,1.5-.2,2.8,0,1.2-.1,2.6-.2,4,0,1.4-.1,2.8-.2,4.1,0,1.3,0,2.4,0,3.2v2.5c0,1,0,1.9,0,3,0,1,0,2.1,0,3.1,0,1.1,0,2,0,2.9,0,.9,0,1.7,0,2.4v1.4h-.6c-3.2-3.7-6.7-7.6-10.3-11.5"/>
    <path class="cls-1" d="M404.6,319.7c0-1.8-.1-3.6-.2-5.5,1.1,0,2.1.1,3.2.1,1.1,0,2.1,0,3.2,0s2.1,0,3.2-.1c1.1,0,2.1-.1,3.2-.1,2.5,0,4.6.3,6.3,1,1.8.6,3.2,1.6,4.3,2.8,1.1,1.2,1.9,2.6,2.5,4.4.5,1.7.8,3.7.8,5.8s-.5,5.2-1.5,7.1c-1,1.9-2.2,3.5-3.7,4.7-1.5,1.2-3.2,2-5,2.5-1.8.5-3.5.7-5.2.7s-1.9,0-2.8,0c-.9,0-1.9,0-2.8,0h-2.8c-.9,0-1.9,0-2.8,0,0-1.7.2-3.5.2-5.3,0-1.8.1-3.6.1-5.5v-7.2c0-1.9,0-3.7-.1-5.5M408.4,341.3c.6.1,1.4.2,2.4.3,1,0,2.1.1,3.1.1,1.5,0,3.1-.2,4.6-.5,1.5-.4,2.9-1.1,4.1-2.1,1.2-1,2.2-2.4,3-4.1.8-1.7,1.2-4,1.2-6.8s-.3-4.5-.9-6c-.6-1.6-1.4-2.8-2.5-3.7-1.1-.9-2.3-1.5-3.8-1.9-1.5-.4-3.1-.5-4.8-.5s-2.4,0-3.5.1c-1.1,0-2.1.2-2.9.3,0,1.3-.1,2.8-.2,4.2,0,1.5,0,3,0,4.5v7.2c0,3,0,6,.3,8.9"/>
    <path class="cls-1" d="M436.2,322.4c.8-1.9,1.9-3.4,3.2-4.7,1.4-1.3,3.1-2.3,5-2.9,1.9-.7,4.1-1,6.4-1s4.5.3,6.4,1c1.9.7,3.6,1.7,5,2.9,1.4,1.3,2.5,2.9,3.2,4.7.8,1.9,1.2,4,1.2,6.4s-.4,4.5-1.2,6.4c-.8,1.9-1.9,3.4-3.2,4.7-1.4,1.3-3.1,2.3-5,2.9-1.9.6-4.1.9-6.4.9s-4.4-.3-6.4-.9c-1.9-.6-3.6-1.6-5-2.9-1.4-1.3-2.5-2.9-3.2-4.7-.8-1.9-1.2-4-1.2-6.4s.4-4.5,1.2-6.4M461.6,322.7c-.6-1.7-1.4-3.1-2.5-4.2-1.1-1.1-2.3-1.9-3.7-2.5-1.4-.5-3-.8-4.6-.8s-3.2.3-4.6.8c-1.4.5-2.7,1.4-3.7,2.5-1.1,1.1-1.9,2.5-2.5,4.2-.6,1.7-.9,3.7-.9,6s.3,4.3.9,6c.6,1.7,1.4,3.1,2.5,4.2,1.1,1.1,2.3,1.9,3.7,2.5,1.4.5,2.9.8,4.6.8s3.2-.3,4.6-.8c1.4-.5,2.7-1.4,3.7-2.5,1.1-1.1,1.9-2.5,2.5-4.2s.9-3.7.9-6-.3-4.3-.9-6"/>
    <path class="cls-1" d="M485.9,332.3c-3.6-3.9-7.3-7.8-10.9-11.7,0,.8,0,1.8,0,3.2,0,1.3,0,3.1,0,5.4s0,1.3,0,2.2c0,.9,0,1.8,0,2.7,0,1,0,1.9,0,2.9,0,1,0,1.9,0,2.7,0,.8,0,1.6,0,2.2,0,.6,0,1.1,0,1.3-.5,0-.9,0-1.5,0s-1.1,0-1.6,0c0-.3.1-.8.2-1.6,0-.8.1-1.7.2-2.7,0-1.1.1-2.2.2-3.4,0-1.2.1-2.5.2-3.7,0-1.2,0-2.4.1-3.6,0-1.2,0-2.2,0-3.2,0-2.7,0-5,0-6.9,0-1.9,0-3.4-.1-4.3h.7c1.7,1.9,3.5,3.8,5.5,6,1.9,2.1,3.9,4.2,5.8,6.3,1.9,2.1,3.7,4,5.5,5.9,1.7,1.8,3.2,3.4,4.5,4.7v-5.7c0-2.9,0-5.8,0-8.6,0-2.8-.1-5.4-.3-7.9.6.1,1,.2,1.4.2s.8,0,1.3-.2c0,.6-.1,1.5-.2,2.8,0,1.2-.1,2.6-.2,4,0,1.4-.1,2.8-.2,4.1,0,1.3,0,2.4,0,3.2v2.5c0,1,0,1.9,0,3,0,1,0,2.1,0,3.1,0,1.1,0,2,0,2.9,0,.9,0,1.7,0,2.4v1.4h-.6c-3.2-3.7-6.7-7.6-10.3-11.5"/>
  </g>
  <path class="cls-2" d="M498,4.2H2C.9,4.2,0,3.3,0,2.2S.9.3,2,.3h496.1c1.1,0,2,.9,2,2s-.9,2-2,2"/>
  <path class="cls-2" d="M498,292.8H2C.9,292.8,0,291.9,0,290.9s.9-2,2-2h496.1c1.1,0,2,.9,2,2s-.9,2-2,2"/>
  <g>
    <g>
      <path class="cls-3" d="M7.1,253.9c3.9,8.4,8.1,9.7,13,9.7s11-4.5,11-10.5-5.3-9-6.9-9.7c-2.4-1-6.3-2.5-8.7-3.5-8.2-3.6-10.6-7.9-10.6-14.9s4.4-16.8,19.6-16.8,9.8,1.6,14,3.5c-1.7,4.1-1.9,4.8-2.6,8h-1.2c-1.3-4.8-5.7-7.3-11-7.3s-9.9,4.1-9.9,9.1,4.3,7.8,11.7,10.7c6.5,2.5,9,3.5,11.4,6.1,3.5,3.8,4.1,8.8,4.1,11.1,0,8.6-6,18.4-21.4,18.4s-12.7-2.8-15.7-4.3c1.4-4.4,1.5-5.5,1.9-9.5h1.2Z"/>
      <path class="cls-3" d="M73,255c0,6.4.3,9.2.6,11.5-2.4-.3-5.1-.5-6.1-.5-1.4,0-2.7.2-5.7.5.3-6.4.8-12.9.8-19.3v-23.5c0-3.1-.2-6.1-.3-9.3h-4.2c-.8,0-8.8.2-13.1.6.3-1,.4-2.1.4-3.1s-.2-2.1-.4-3.1c6.6.4,16,.5,22.5.5s14.4,0,22.5-.5c-.3,1.4-.4,2.5-.4,3.2s.2,1.7.4,3c-5-.5-10.9-.6-16.8-.6,0,3-.2,6.2-.2,9.4v31.1Z"/>
      <path class="cls-3" d="M150.1,208.1c6.9,0,13,1.2,19.7,4.2l-2.5,8.3h-.8c-1-2-4-7.9-16.1-7.9s-21.6,9.3-21.6,25.2,1.2,12.5,5.1,17.6c3,4,7.6,7.7,15.2,7.7s8.6-.8,12-3c.3-5.9.3-6.6.3-7.7,0-4.1-.3-8.3-.5-12.4,1.9.3,3.8.6,6,.6s3.5-.3,5.3-.6c-.5,3-.7,11.9-.7,14.1s0,5.3.3,7.7c-7.2,3.8-16.3,5.9-24.4,5.9-16.4,0-30.1-10.2-30.1-29.1s10.4-30.5,32.8-30.5Z"/>
      <path class="cls-3" d="M194.4,233.8c4.3,0,13.7,0,18.2-.6-.3.9-.4,1.8-.4,3s.2,2.3.4,2.9c-2.2-.2-4.4-.3-6.5-.4-3.9,0-7.8-.2-11.7-.2v22.8c2.2,0,13-.3,20.1-.6-.3.8-.4,1.6-.4,2.8s0,2.1.4,3c-5.1-.3-10.1-.5-15.5-.5s-10.4.2-15.7.5c.2-3.5.3-7,.4-10.5.2-4.9.3-15.2.3-19s-.2-19.8-.8-28.2c4.1.3,10.7.5,15.2.5s9.4-.3,15.5-.5c-.3,1-.4,1.7-.4,2.7s.2,2.4.4,3.1l-7.9-.4c-3.1-.2-4-.2-11.7-.2v19.8Z"/>
      <path class="cls-3" d="M283.2,236.9c0,18.8-12.7,30.8-31.4,30.8s-31.4-10.4-31.4-28.8,14.6-30.8,31.7-30.8,31.1,8.6,31.1,28.8ZM251.8,263.4c14.3,0,19.9-13.5,19.9-25.5s-5.1-25.5-19.9-25.5-19.9,14-19.9,25.5,5.4,25.5,19.9,25.5Z"/>
      <path class="cls-3" d="M320.3,241.3c1.3,1.8,3.1,4.5,4.4,6.3,6.7,9.3,8.9,12.3,14.2,18.9-2.4-.3-4.5-.5-7.5-.5s-4.3.2-6.8.5c-1.3-1.9-3.1-5.1-4.4-7-4.3-6.6-9.5-14.1-14.1-20.5h-2v12c0,2.4.3,13.3.3,15.5-1.7-.2-3.5-.5-5.6-.5s-4,.3-5.8.5c.7-16.6.8-18.4.8-34.7s0-12.2-.6-23.1c1.9.2,4.1.4,8.4.4s12-.4,13.9-.4c5.5,0,9.6.7,13.2,4.1,2.5,2.4,3.9,5.9,3.9,9.4,0,9.3-7,14.1-14.6,15.6l2.4,3.4ZM304.2,235.1c1.6,0,3.6.3,5.8.3,8.4,0,11.5-6.1,11.5-11.6s-.6-6.6-3.5-8.8c-2.3-1.7-5.1-2.1-7.8-2.1s-4.7.3-6,.4v21.8Z"/>
      <path class="cls-3" d="M373.1,208.1c6.9,0,13,1.2,19.7,4.2l-2.5,8.3h-.8c-1-2-4-7.9-16.1-7.9s-21.6,9.3-21.6,25.2,1.2,12.5,5.1,17.6c3,4,7.6,7.7,15.2,7.7s8.6-.8,12-3c.3-5.9.3-6.6.3-7.7,0-4.1-.3-8.3-.5-12.4,1.9.3,3.8.6,6,.6s3.5-.3,5.3-.6c-.5,3-.7,11.9-.7,14.1s0,5.3.3,7.7c-7.2,3.8-16.3,5.9-24.4,5.9-16.4,0-30.1-10.2-30.1-29.1s10.4-30.5,32.8-30.5Z"/>
      <path class="cls-3" d="M417.4,233.8c4.3,0,13.7,0,18.2-.6-.3.9-.4,1.8-.4,3s.2,2.3.4,2.9c-2.2-.2-4.4-.3-6.5-.4-3.9,0-7.8-.2-11.7-.2v22.8c2.2,0,13-.3,20.1-.6-.3.8-.4,1.6-.4,2.8s0,2.1.4,3c-5.1-.3-10.1-.5-15.5-.5s-10.4.2-15.7.5c.2-3.5.3-7,.4-10.5.2-4.9.3-15.2.3-19s-.2-19.8-.8-28.2c4.1.3,10.7.5,15.2.5s9.4-.3,15.5-.5c-.3,1-.4,1.7-.4,2.7s.2,2.4.4,3.1l-7.9-.4c-3.1-.2-4-.2-11.7-.2v19.8Z"/>
      <path class="cls-3" d="M462.3,253.9c3.9,8.4,8.1,9.7,13,9.7s11-4.5,11-10.5-5.3-9-6.9-9.7c-2.4-1-6.3-2.5-8.7-3.5-8.2-3.6-10.6-7.9-10.6-14.9s4.4-16.8,19.6-16.8,9.8,1.6,14,3.5c-1.7,4.1-1.9,4.8-2.6,8h-1.2c-1.3-4.8-5.7-7.3-11-7.3s-9.9,4.1-9.9,9.1,4.3,7.8,11.7,10.7c6.5,2.5,9,3.5,11.4,6.1,3.5,3.8,4.1,8.8,4.1,11.1,0,8.6-6,18.4-21.4,18.4s-12.7-2.8-15.7-4.3c1.4-4.4,1.5-5.5,1.9-9.5h1.2Z"/>
    </g>
    <path class="cls-3" d="M444,229.2l4.6-17c.7-2.8,1.7-5.4,4.9-5.4s3.7,1.5,3.7,3.6-.7,2.8-2,4.6l-9.6,14.9-1.6-.7Z"/>
  </g>
</svg>